<?xml version='1.0' encoding='utf-8'?>
<svg xmlns="http://www.w3.org/2000/svg" width="210mm" height="324.774mm" version="1.1" style="shape-rendering:geometricPrecision; text-rendering:geometricPrecision; image-rendering:optimizeQuality; fill-rule:evenodd; clip-rule:evenodd" viewBox="0 0 21000 32477" id="svg3094"><metadata id="metadata3201"/><defs id="defs3096"> <style type="text/css" id="style3098"> .str0 {stroke:#2B2A29;stroke-width:70.55} .fil3 {fill:none} .fil8 {fill:#009846} .fil10 {fill:#E31E24} .fil1 {fill:#EBECEC} .fil7 {fill:#CC232A} .fil6 {fill:#CDC372} .fil4 {fill:#DCCF73} .fil5 {fill:#E31E24} .fil9 {fill:#07883F} .fil0 {fill:url(#id0)} .fil2 {fill:url(#id1)} </style> <linearGradient id="id0" gradientUnits="userSpaceOnUse" x1="10500" y1="0" x2="10500" y2="29700"> <stop offset="0" style="stop-color:#A75F4A" id="stop3101"/> <stop offset="1" style="stop-color:#734334" id="stop3103"/> </linearGradient> <linearGradient id="id1" gradientUnits="userSpaceOnUse" x1="10500" y1="3721.91" x2="10500" y2="2592.63"> <stop offset="0" style="stop-color:#2B2A29" id="stop3106"/> <stop offset="0.0588235" style="stop-color:#626767" id="stop3108"/> <stop offset="0.121569" style="stop-color:#B5B1B4" id="stop3110"/> <stop offset="0.188235" style="stop-color:#E5E5E5" id="stop3112"/> <stop offset="0.239216" style="stop-color:white" id="stop3114"/> <stop offset="0.4" style="stop-color:#C8CECB" id="stop3116"/> <stop offset="0.619608" style="stop-color:#9F9A9E" id="stop3118"/> <stop offset="0.780392" style="stop-color:#666467" id="stop3120"/> <stop offset="1" style="stop-color:#2B2A29" id="stop3122"/> </linearGradient> </defs> <g id="Ebene_x0020_1"> <metadata id="CorelCorpID_0Corel-Layer"/> <g id="_256209136"> <path class="fil0" d="M1500 0l18000 0c825,0 1500,675 1500,1500l0 26700c0,825 -675,1500 -1500,1500l-18000 0c-825,0 -1500,-675 -1500,-1500l0 -26700c0,-825 675,-1500 1500,-1500z" id="path3127"/> <rect class="fil1" x="1534" y="3338" width="17933" height="25362" id="rect3129"/> <path class="fil2" d="M6518 2593l7964 0c165,0 300,180 300,400l0 729 -8564 0 0 -729c0,-220 135,-400 300,-400z" id="path3131"/> <rect class="fil3 str0" x="2995" y="5933" width="2211" height="2211" rx="376" ry="376" id="rect3133"/> <rect class="fil3 str0" x="2995" y="19591" width="2211" height="2211" rx="376" ry="376" id="rect3135"/> <rect class="fil3 str0" x="2995" y="15038" width="2211" height="2211" rx="376" ry="376" id="rect3137"/> <rect class="fil3 str0" x="2995" y="10486" width="2211" height="2211" rx="376" ry="376" id="rect3139"/> <rect class="fil3 str0" x="2995" y="24143" width="2211" height="2211" rx="376" ry="376" id="rect3141"/> <line class="fil3 str0" x1="5959" y1="8145" x2="18146" y2="8145" id="line3143"/> <line class="fil3 str0" x1="5959" y1="12697" x2="18146" y2="12697" id="line3145"/> <line class="fil3 str0" x1="5959" y1="17250" x2="18146" y2="17250" id="line3147"/> <line class="fil3 str0" x1="5959" y1="21802" x2="18146" y2="21802" id="line3149"/> <line class="fil3 str0" x1="5959" y1="26354" x2="18146" y2="26354" id="line3151"/> <g id="g3153"> <polygon class="fil4" points="10261,13368 11296,10559 12331,13368 12331,15746 10261,15747 " id="polygon3155"/> <path class="fil5" d="M10935 11538l289 -893c50,-109 75,-120 141,-9l291 902c-250,124 -490,118 -721,0z" id="path3157"/> <path class="fil5" d="M10261 13368l244 429c91,-143 178,-570 273,-430l259 380c88,-173 181,-692 266,-518l252 518c86,-127 173,-506 258,-380l259 379 259 -378 0 17790c-713,462 -1278,436 -2070,2l0 -17792z" id="path3159"/> <ellipse class="fil6" transform="matrix(1.17571 0.240506 -0.240505 1.17571 10960.6 12459.9)" rx="55" ry="604" id="ellipse3161"/> <ellipse class="fil6" transform="matrix(-1.22997 0.251607 0.251607 1.22997 11592 12441.7)" rx="55" ry="604" id="ellipse3163"/> <ellipse class="fil7" cx="10751" cy="23043" rx="44" ry="7807" id="ellipse3165"/> <ellipse class="fil7" cx="11778" cy="22859" rx="44" ry="7807" id="ellipse3167"/> <ellipse class="fil7" cx="11277" cy="22399" rx="51" ry="9067" id="ellipse3169"/> </g> <g id="g3171"> <polygon class="fil4" points="15516,14580 13780,12122 13506,15119 14126,17436 16137,16898 " id="polygon3173"/> <path class="fil8" d="M14385 12979l-481 -747c-134,-152 -141,-168 -175,36l-44 898c275,56 507,-13 700,-187z" id="path3175"/> <path class="fil8" d="M15517 14580l-126 481c-126,-115 -321,-507 -377,-346l-153 435c-131,-144 -356,-625 -393,-433l-110 567c-116,-100 -299,-445 -350,-300l-153 435 -349 -300 4642 17324c772,105 1325,-18 2011,-538l-4642 -17325z" id="path3177"/> <ellipse class="fil6" transform="matrix(-1.07917 0.539494 0.539494 1.07917 14600.3 13880.6)" rx="55" ry="604" id="ellipse3179"/> <ellipse class="fil6" transform="matrix(1.25993 -0.0757159 0.0757157 1.25993 13982.4 14027.2)" rx="55" ry="604" id="ellipse3181"/> <ellipse class="fil9" transform="matrix(-0.349581 0.0936704 0.627982 2.34367 17457.4 23663)" rx="121" ry="3086" id="ellipse3183"/> <ellipse class="fil9" transform="matrix(-0.349581 0.0936704 0.627982 2.34367 16389.8 23765.9)" rx="121" ry="3086" id="ellipse3185"/> <ellipse class="fil9" transform="matrix(-0.40601 0.108791 0.729351 2.72198 16770.8 23209.3)" rx="121" ry="3086" id="ellipse3187"/> </g> <path class="fil8" d="M5212 6075l53 75c-216,164 -457,414 -722,753 -266,340 -468,657 -607,951l-113 76c-93,65 -156,113 -190,144 -13,-47 -42,-125 -86,-233l-43 -99c-60,-142 -117,-247 -169,-315 -52,-67 -110,-113 -175,-135 109,-115 209,-172 300,-172 78,0 165,105 260,317l47 106c171,-289 391,-569 659,-841 268,-272 530,-482 786,-627z" id="path3189"/> <path class="fil8" d="M5212 10592l53 75c-216,164 -457,415 -722,754 -266,339 -468,656 -607,950l-113 76c-93,65 -156,113 -190,144 -13,-47 -42,-125 -86,-233l-43 -99c-60,-142 -117,-247 -169,-314 -52,-68 -110,-113 -175,-136 109,-115 209,-172 300,-172 78,0 165,105 260,317l47 106c171,-289 391,-569 659,-841 268,-272 530,-482 786,-627z" id="path3191"/> <path class="fil8" d="M5212 19626l53 76c-216,163 -457,414 -722,753 -266,339 -468,656 -607,950l-113 77c-93,64 -156,112 -190,144 -13,-48 -42,-126 -86,-234l-43 -99c-60,-142 -117,-246 -169,-314 -52,-68 -110,-113 -175,-135 109,-116 209,-173 300,-173 78,0 165,106 260,317l47 106c171,-288 391,-569 659,-841 268,-272 530,-481 786,-627z" id="path3193"/> <path class="fil10" d="M4039 16454l-23 32c-160,243 -291,364 -394,364 -117,0 -233,-96 -347,-288 15,1 27,1 34,1 135,0 284,-102 449,-307l42 -52 -54 -59c-150,-160 -225,-295 -225,-407 0,-91 82,-199 246,-323 24,159 94,314 211,465l46 59 37 -49c171,-218 326,-327 466,-327 108,0 191,82 247,248 -16,-2 -28,-3 -35,-3 -49,0 -118,33 -208,99 -89,66 -164,140 -226,223l-46 63 45 43c165,160 337,239 516,239 -96,195 -196,293 -301,293 -94,0 -230,-83 -409,-250l-71 -64z" id="path3195"/> <path class="fil10" d="M4039 25535l-23 33c-160,242 -291,363 -394,363 -117,0 -233,-96 -347,-288 15,1 27,2 34,2 135,0 284,-103 449,-308l42 -52 -54 -58c-150,-160 -225,-296 -225,-408 0,-91 82,-199 246,-323 24,159 94,314 211,465l46 59 37 -48c171,-219 326,-328 466,-328 108,0 191,83 247,249 -16,-3 -28,-4 -35,-4 -49,0 -118,33 -208,100 -89,65 -164,140 -226,222l-46 63 45 43c165,160 337,240 516,240 -96,195 -196,292 -301,292 -94,0 -230,-83 -409,-249l-71 -65z" id="path3197"/> </g> </g> </svg>